<!-- This Source Code Form is subject to the terms of the Mozilla Public
   - License, v. 2.0. If a copy of the MPL was not distributed with this
   - file, You can obtain one at https://mozilla.org/MPL/2.0/. -->
<svg xmlns="http://www.w3.org/2000/svg" viewBox="0 0 10 7" fill="context-fill"><path d="M4.39,1.58a1.55,1.55,0,0,1-.37,1A2,2,0,0,1,3,3.23v0a2,2,0,0,1,1.21.49,1.33,1.33,0,0,1,.42,1,1.79,1.79,0,0,1-.7,1.49,3.22,3.22,0,0,1-2,.53A4.78,4.78,0,0,1,0,6.45V5.26a4.28,4.28,0,0,0,.85.32,3.61,3.61,0,0,0,.91.12,1.85,1.85,0,0,0,1-.23.87.87,0,0,0,.33-.76.69.69,0,0,0-.38-.66,2.84,2.84,0,0,0-1.22-.2H1V2.78h.51a2.45,2.45,0,0,0,1.13-.2A.73.73,0,0,0,3,1.89c0-.51-.31-.76-.94-.76a2.17,2.17,0,0,0-.66.11,2.94,2.94,0,0,0-.75.38L0,.65A3.61,3.61,0,0,1,2.17,0,2.79,2.79,0,0,1,3.8.42,1.33,1.33,0,0,1,4.39,1.58Z"/><path class="cls-1" d="M6.71,4.13,5.08,1.65H6.64l1,1.62,1-1.62h1.57L8.54,4.13l1.72,2.59H8.69L7.63,5,6.56,6.72H5Z"/></svg>