<!-- This Source Code Form is subject to the terms of the Mozilla Public
   - License, v. 2.0. If a copy of the MPL was not distributed with this
   - file, You can obtain one at https://mozilla.org/MPL/2.0/. -->
<svg xmlns="http://www.w3.org/2000/svg" viewBox="0 0 19 18" fill="context-fill"><path d="M18,8.37,12,4.9a.73.73,0,0,0-1.09.63v6.94A.73.73,0,0,0,12,13.1l6-3.47A.72.72,0,0,0,18,8.37Z"/><path class="cls-1" d="M8.45.78A.42.42,0,0,0,8,1.2V16.8a.42.42,0,0,0,.84,0V1.2A.42.42,0,0,0,8.45.78Z"/><path class="cls-1" d="M5.17,4.68a.84.84,0,0,0-.83.84v7a.84.84,0,0,0,.83.84A.85.85,0,0,0,6,12.48v-7A.85.85,0,0,0,5.17,4.68Z"/><path class="cls-1" d="M1.48,4.68a.85.85,0,0,0-.84.84v7a.85.85,0,0,0,.84.84.84.84,0,0,0,.83-.84v-7A.84.84,0,0,0,1.48,4.68Z"/></svg>