<!-- This Source Code Form is subject to the terms of the Mozilla Public
   - License, v. 2.0. If a copy of the MPL was not distributed with this
   - file, You can obtain one at https://mozilla.org/MPL/2.0/. -->
<svg xmlns="http://www.w3.org/2000/svg" viewBox="0 0 18 7" fill="context-fill"><path d="M4.63,3.42A4.64,4.64,0,0,1,4.06,6a2,2,0,0,1-1.75.83A2,2,0,0,1,.58,6,4.52,4.52,0,0,1,0,3.42,4.67,4.67,0,0,1,.57.83,2,2,0,0,1,2.31,0,1.94,1.94,0,0,1,4,.87,4.49,4.49,0,0,1,4.63,3.42Zm-3.24,0A5.13,5.13,0,0,0,1.6,5.16a.72.72,0,0,0,.71.53A.75.75,0,0,0,3,5.16a5.15,5.15,0,0,0,.22-1.74A5.1,5.1,0,0,0,3,1.67a.75.75,0,0,0-.71-.54.74.74,0,0,0-.71.54A5.16,5.16,0,0,0,1.39,3.42Z"/><path class="cls-1" d="M5.49,6.08a.74.74,0,0,1,.21-.57.81.81,0,0,1,.59-.2.82.82,0,0,1,.58.2.74.74,0,0,1,.21.57.77.77,0,0,1-.21.57.82.82,0,0,1-.58.2.84.84,0,0,1-.59-.2A.74.74,0,0,1,5.49,6.08Z"/><path class="cls-1" d="M10.39,2.5A2.13,2.13,0,0,1,11.92,3a1.93,1.93,0,0,1,.57,1.47,2.17,2.17,0,0,1-.68,1.71,2.89,2.89,0,0,1-2,.6,3.85,3.85,0,0,1-1.79-.36V5.25a3.59,3.59,0,0,0,.84.31,3.6,3.6,0,0,0,.9.12c.85,0,1.28-.35,1.28-1s-.44-1-1.33-1a3.61,3.61,0,0,0-.53.05,3.13,3.13,0,0,0-.47.1l-.56-.3L8.44.1H12V1.29H9.67l-.12,1.3.16,0A3.23,3.23,0,0,1,10.39,2.5Z"/><path class="cls-1" d="M14.67,4.14,13,1.66h1.57l1,1.62,1-1.62h1.57L16.5,4.14l1.73,2.59H16.65L15.59,5,14.52,6.73H13Z"/></svg>