<!-- This Source Code Form is subject to the terms of the Mozilla Public
   - License, v. 2.0. If a copy of the MPL was not distributed with this
   - file, You can obtain one at https://mozilla.org/MPL/2.0/. -->
<svg xmlns="http://www.w3.org/2000/svg" viewBox="0 0 10 7" fill="context-fill"><path d="M4.65,6.72H0v-1L1.68,4.06c.49-.5.82-.85,1-1A2.15,2.15,0,0,0,3,2.47,1.25,1.25,0,0,0,3.07,2a.75.75,0,0,0-.22-.6.83.83,0,0,0-.58-.19,1.66,1.66,0,0,0-.75.18,3.41,3.41,0,0,0-.76.5L0,1A4.92,4.92,0,0,1,.81.36a2.82,2.82,0,0,1,.7-.27A3.79,3.79,0,0,1,2.37,0,2.53,2.53,0,0,1,3.46.23,1.7,1.7,0,0,1,4.2.86a1.63,1.63,0,0,1,.26.93,2.2,2.2,0,0,1-.16.86,3.1,3.1,0,0,1-.5.83,11.58,11.58,0,0,1-1.19,1.2l-.85.8v.06H4.65Z"/><path class="cls-1" d="M6.71,4.13,5.08,1.65H6.64l1,1.62,1-1.62h1.57L8.54,4.13l1.72,2.59H8.69L7.63,5,6.56,6.72H5Z"/></svg>