<!-- This Source Code Form is subject to the terms of the Mozilla Public
   - License, v. 2.0. If a copy of the MPL was not distributed with this
   - file, You can obtain one at https://mozilla.org/MPL/2.0/. -->
   <svg xmlns="http://www.w3.org/2000/svg" viewBox="0 0 16 16" fill="context-fill"><path d="M.94,5.65a.84.84,0,0,0,.37.09A.77.77,0,0,0,2,5.34,6.69,6.69,0,0,1,8.39,1.85a6.58,6.58,0,0,1,4.07,1.79L12,4.06a.66.66,0,0,0,.21,1.13l2.52.88a.66.66,0,0,0,.87-.75L15.09,2.7A.66.66,0,0,0,14,2.32l-.36.3a8.24,8.24,0,0,0-13,2A.77.77,0,0,0,.94,5.65Z"/><path class="cls-1" d="M15.06,10.35a.79.79,0,0,0-1.06.31,6.69,6.69,0,0,1-6.39,3.49,6.58,6.58,0,0,1-4.07-1.79L4,11.94a.66.66,0,0,0-.21-1.13L1.29,9.93a.66.66,0,0,0-.87.75L.91,13.3A.66.66,0,0,0,2,13.68l.36-.3A8.2,8.2,0,0,0,7.5,15.71l.62,0a8.24,8.24,0,0,0,7.25-4.33A.77.77,0,0,0,15.06,10.35Z"/></svg>